solid Homework_Model
facet normal 0.0 0.0 -1.0
  outer loop
    vertex 203.54410745534557 31.498534407917408 20.227200000000195
    vertex 200.49370745534551 28.59693440791743 20.227200000000195
    vertex 200.49370745534551 31.498534407917408 20.227200000000195
  endloop
endfacet
facet normal 0.0 0.0 -1.0
  outer loop
    vertex 200.49370745534551 28.59693440791743 20.227200000000195
    vertex 203.54410745534557 31.498534407917408 20.227200000000195
    vertex 201.34121315036396 28.59693440791743 20.227200000000195
  endloop
endfacet
facet normal 0.0 0.0 -1.0
  outer loop
    vertex 200.49370745534551 28.59693440791743 20.227200000000195
    vertex 201.34121315036396 28.59693440791743 20.227200000000195
    vertex 200.5664306077322 25.921970308278777 20.227200000000195
  endloop
endfacet
facet normal 0.0 0.0 -1.0
  outer loop
    vertex 200.5664306077322 25.921970308278777 20.227200000000195
    vertex 201.34121315036396 28.59693440791743 20.227200000000195
    vertex 200.5664306077322 23.094770308278786 20.227200000000195
  endloop
endfacet
facet normal 0.0 0.0 -1.0
  outer loop
    vertex 201.34121315036396 28.59693440791743 20.227200000000195
    vertex 203.54410745534557 31.498534407917408 20.227200000000195
    vertex 204.3916131503639 28.59693440791743 20.227200000000195
  endloop
endfacet
facet normal 0.0 0.0 -1.0
  outer loop
    vertex 204.3916131503639 28.59693440791743 20.227200000000195
    vertex 203.54410745534557 31.498534407917408 20.227200000000195
    vertex 204.6985911553261 29.810889840602925 20.227200000000202
  endloop
endfacet
facet normal 0.0 0.0 -1.0
  outer loop
    vertex 204.6985911553261 29.810889840602925 20.227200000000202
    vertex 203.54410745534557 31.498534407917408 20.227200000000195
    vertex 204.7654844782351 29.972384608002276 20.227200000000202
  endloop
endfacet
facet normal 0.0 0.0 -1.0
  outer loop
    vertex 204.7654844782351 29.972384608002276 20.227200000000202
    vertex 203.54410745534557 31.498534407917408 20.227200000000195
    vertex 204.87189638792665 30.111063308684777 20.227200000000202
  endloop
endfacet
facet normal 0.0 0.0 -1.0
  outer loop
    vertex 204.87189638792665 30.111063308684777 20.227200000000202
    vertex 203.54410745534557 31.498534407917408 20.227200000000195
    vertex 206.29690743836156 31.49837543602498 20.227200000000195
  endloop
endfacet
facet normal 0.0 0.0 -1.0
  outer loop
    vertex 204.3916131503639 28.59693440791743 20.227200000000195
    vertex 204.6985911553261 29.810889840602925 20.227200000000202
    vertex 204.6757750886092 29.63758460800226 20.227200000000202
  endloop
endfacet
facet normal 0.0 0.0 -1.0
  outer loop
    vertex 204.3916131503639 28.59693440791743 20.227200000000195
    vertex 204.6757750886092 29.63758460800226 20.227200000000202
    vertex 204.3916131503639 25.5465344079174 20.227200000000195
  endloop
endfacet
facet normal 0.0 0.0 -1.0
  outer loop
    vertex 204.87189638792665 30.111063308684777 20.227200000000202
    vertex 206.29690743836156 31.49837543602498 20.227200000000195
    vertex 205.01057508860916 30.217475218376336 20.227200000000202
  endloop
endfacet
facet normal 0.0 0.0 -1.0
  outer loop
    vertex 205.01057508860916 30.217475218376336 20.227200000000202
    vertex 206.29690743836156 31.49837543602498 20.227200000000195
    vertex 205.1720698560086 30.284368541285424 20.227200000000202
  endloop
endfacet
facet normal 0.0 0.0 -1.0
  outer loop
    vertex 205.1720698560086 30.284368541285424 20.227200000000202
    vertex 206.29690743836156 31.49837543602498 20.227200000000195
    vertex 205.34537508860927 30.307184608002267 20.227200000000202
  endloop
endfacet
facet normal 0.0 0.0 -1.0
  outer loop
    vertex 205.34537508860927 30.307184608002267 20.227200000000202
    vertex 206.29690743836156 31.49837543602498 20.227200000000195
    vertex 205.51868032121 30.284368541285424 20.227200000000202
  endloop
endfacet
facet normal 0.0 0.0 -1.0
  outer loop
    vertex 205.51868032121 30.284368541285424 20.227200000000202
    vertex 206.29690743836156 31.49837543602498 20.227200000000195
    vertex 205.68017508860925 30.217475218376336 20.227200000000202
  endloop
endfacet
facet normal 0.0 0.0 -1.0
  outer loop
    vertex 205.68017508860925 30.217475218376336 20.227200000000202
    vertex 206.29690743836156 31.49837543602498 20.227200000000195
    vertex 205.81885378929175 30.111063308684777 20.227200000000202
  endloop
endfacet
facet normal 0.0 0.0 -1.0
  outer loop
    vertex 205.81885378929175 30.111063308684777 20.227200000000202
    vertex 206.29690743836156 31.49837543602498 20.227200000000195
    vertex 205.9252656989832 29.972384608002276 20.227200000000202
  endloop
endfacet
facet normal 0.0 0.0 -1.0
  outer loop
    vertex 205.9252656989832 29.972384608002276 20.227200000000202
    vertex 206.29690743836156 31.49837543602498 20.227200000000195
    vertex 205.9921590218925 29.810889840602925 20.227200000000202
  endloop
endfacet
facet normal 0.0 0.0 -1.0
  outer loop
    vertex 205.9921590218925 29.810889840602925 20.227200000000202
    vertex 206.29690743836156 31.49837543602498 20.227200000000195
    vertex 206.01497508860922 29.63758460800226 20.227200000000202
  endloop
endfacet
facet normal 0.0 0.0 -1.0
  outer loop
    vertex 206.01497508860922 29.63758460800226 20.227200000000202
    vertex 206.29690743836156 31.49837543602498 20.227200000000195
    vertex 206.29523059074828 23.09461133638636 20.227200000000195
  endloop
endfacet
facet normal 0.0 0.0 -1.0
  outer loop
    vertex 200.5664306077322 23.094770308278786 20.227200000000195
    vertex 201.34121315036396 25.5465344079174 20.227200000000195
    vertex 206.29523059074828 23.09461133638636 20.227200000000195
  endloop
endfacet
facet normal 0.0 0.0 -1.0
  outer loop
    vertex 201.34121315036396 25.5465344079174 20.227200000000195
    vertex 200.5664306077322 23.094770308278786 20.227200000000195
    vertex 201.34121315036396 28.59693440791743 20.227200000000195
  endloop
endfacet
facet normal 0.0 0.0 -1.0
  outer loop
    vertex 206.29523059074828 23.09461133638636 20.227200000000195
    vertex 201.34121315036396 25.5465344079174 20.227200000000195
    vertex 204.3916131503639 25.5465344079174 20.227200000000195
  endloop
endfacet
facet normal 0.0 0.0 -1.0
  outer loop
    vertex 206.29523059074828 23.09461133638636 20.227200000000195
    vertex 204.3916131503639 25.5465344079174 20.227200000000195
    vertex 204.6985911553261 29.46427937540161 20.227200000000202
  endloop
endfacet
facet normal 0.0 0.0 -1.0
  outer loop
    vertex 204.6985911553261 29.46427937540161 20.227200000000202
    vertex 204.3916131503639 25.5465344079174 20.227200000000195
    vertex 204.6757750886092 29.63758460800226 20.227200000000202
  endloop
endfacet
facet normal 0.0 0.0 -1.0
  outer loop
    vertex 206.29523059074828 23.09461133638636 20.227200000000195
    vertex 204.6985911553261 29.46427937540161 20.227200000000202
    vertex 204.7654844782351 29.302784608002277 20.227200000000202
  endloop
endfacet
facet normal 0.0 0.0 -1.0
  outer loop
    vertex 206.29523059074828 23.09461133638636 20.227200000000195
    vertex 204.7654844782351 29.302784608002277 20.227200000000202
    vertex 204.87189638792665 29.164105907319758 20.227200000000202
  endloop
endfacet
facet normal 0.0 0.0 -1.0
  outer loop
    vertex 206.29523059074828 23.09461133638636 20.227200000000195
    vertex 204.87189638792665 29.164105907319758 20.227200000000202
    vertex 205.01057508860916 29.057693997628213 20.227200000000202
  endloop
endfacet
facet normal 0.0 0.0 -1.0
  outer loop
    vertex 206.29523059074828 23.09461133638636 20.227200000000195
    vertex 205.01057508860916 29.057693997628213 20.227200000000202
    vertex 205.1720698560086 28.990800674719114 20.227200000000202
  endloop
endfacet
facet normal 0.0 0.0 -1.0
  outer loop
    vertex 206.29523059074828 23.09461133638636 20.227200000000195
    vertex 205.1720698560086 28.990800674719114 20.227200000000202
    vertex 205.34537508860927 28.96798460800228 20.227200000000202
  endloop
endfacet
facet normal 0.0 0.0 -1.0
  outer loop
    vertex 206.29523059074828 23.09461133638636 20.227200000000195
    vertex 205.34537508860927 28.96798460800228 20.227200000000202
    vertex 205.51868032121 28.990800674719114 20.227200000000202
  endloop
endfacet
facet normal 0.0 0.0 -1.0
  outer loop
    vertex 206.29523059074828 23.09461133638636 20.227200000000195
    vertex 205.51868032121 28.990800674719114 20.227200000000202
    vertex 205.68017508860925 29.057693997628213 20.227200000000202
  endloop
endfacet
facet normal 0.0 0.0 -1.0
  outer loop
    vertex 206.29523059074828 23.09461133638636 20.227200000000195
    vertex 205.68017508860925 29.057693997628213 20.227200000000202
    vertex 205.81885378929175 29.164105907319758 20.227200000000202
  endloop
endfacet
facet normal 0.0 0.0 -1.0
  outer loop
    vertex 206.29523059074828 23.09461133638636 20.227200000000195
    vertex 205.81885378929175 29.164105907319758 20.227200000000202
    vertex 205.9252656989832 29.302784608002277 20.227200000000202
  endloop
endfacet
facet normal 0.0 0.0 -1.0
  outer loop
    vertex 206.29523059074828 23.09461133638636 20.227200000000195
    vertex 205.9252656989832 29.302784608002277 20.227200000000202
    vertex 205.9921590218925 29.46427937540161 20.227200000000202
  endloop
endfacet
facet normal 0.0 0.0 -1.0
  outer loop
    vertex 206.29523059074828 23.09461133638636 20.227200000000195
    vertex 205.9921590218925 29.46427937540161 20.227200000000202
    vertex 206.01497508860922 29.63758460800226 20.227200000000202
  endloop
endfacet
facet normal 0.0 0.0 -1.0
  outer loop
    vertex 182.15987233047136 32.11549352810897 20.227200000000195
    vertex 180.82005664661077 30.82893440791742 20.227200000000195
    vertex 180.82005664661077 33.51077030827878 20.227200000000195
  endloop
endfacet
facet normal 0.0 0.0 -1.0
  outer loop
    vertex 187.10170745534552 28.596934407917423 20.227200000000195
    vertex 184.1686723304714 28.596934407917423 20.227200000000195
    vertex 184.1686723304714 32.11549352810897 20.227200000000195
  endloop
endfacet
facet normal 0.0 0.0 -1.0
  outer loop
    vertex 191.0449074553455 32.91213440791743 20.227200000000195
    vertex 188.66410745534552 28.596934407917423 20.227200000000195
    vertex 188.66410745534552 32.91213440791743 20.227200000000195
  endloop
endfacet
facet normal 0.0 0.0 -1.0
  outer loop
    vertex 179.33556535408204 35.05671148196418 20.227200000000195
    vertex 177.7256306077323 25.921970308278777 20.227200000000195
    vertex 177.7256306077323 33.51077030827878 20.227200000000195
  endloop
endfacet
facet normal 0.0 0.0 -1.0
  outer loop
    vertex 177.7256306077323 25.921970308278777 20.227200000000195
    vertex 179.33556535408204 35.05671148196418 20.227200000000195
    vertex 180.82005664661077 28.596934407917423 20.227200000000195
  endloop
endfacet
facet normal 0.0 0.0 -1.0
  outer loop
    vertex 177.7256306077323 25.921970308278777 20.227200000000195
    vertex 180.82005664661077 28.596934407917423 20.227200000000195
    vertex 200.5664306077322 25.921970308278777 20.227200000000195
  endloop
endfacet
facet normal 0.0 0.0 -1.0
  outer loop
    vertex 180.82005664661077 28.596934407917423 20.227200000000195
    vertex 179.33556535408204 35.05671148196418 20.227200000000195
    vertex 180.82005664661077 33.51077030827878 20.227200000000195
  endloop
endfacet
facet normal 0.0 0.0 -1.0
  outer loop
    vertex 180.82005664661077 28.596934407917423 20.227200000000195
    vertex 180.82005664661077 33.51077030827878 20.227200000000195
    vertex 180.82005664661077 30.82893440791742 20.227200000000195
  endloop
endfacet
facet normal 0.0 0.0 -1.0
  outer loop
    vertex 200.5664306077322 25.921970308278777 20.227200000000195
    vertex 180.82005664661077 28.596934407917423 20.227200000000195
    vertex 182.15987233047136 28.596934407917423 20.227200000000195
  endloop
endfacet
facet normal 0.0 0.0 -1.0
  outer loop
    vertex 200.5664306077322 25.921970308278777 20.227200000000195
    vertex 182.15987233047136 28.596934407917423 20.227200000000195
    vertex 184.1686723304714 28.596934407917423 20.227200000000195
  endloop
endfacet
facet normal 0.0 0.0 -1.0
  outer loop
    vertex 200.5664306077322 25.921970308278777 20.227200000000195
    vertex 184.1686723304714 28.596934407917423 20.227200000000195
    vertex 187.10170745534552 28.596934407917423 20.227200000000195
  endloop
endfacet
facet normal 0.0 0.0 -1.0
  outer loop
    vertex 200.5664306077322 25.921970308278777 20.227200000000195
    vertex 187.10170745534552 28.596934407917423 20.227200000000195
    vertex 188.66410745534552 28.596934407917423 20.227200000000195
  endloop
endfacet
facet normal 0.0 0.0 -1.0
  outer loop
    vertex 200.5664306077322 25.921970308278777 20.227200000000195
    vertex 188.66410745534552 28.596934407917423 20.227200000000195
    vertex 191.0449074553455 28.59693440791743 20.227200000000195
  endloop
endfacet
facet normal 0.0 0.0 -1.0
  outer loop
    vertex 191.0449074553455 28.59693440791743 20.227200000000195
    vertex 188.66410745534552 28.596934407917423 20.227200000000195
    vertex 191.0449074553455 32.91213440791743 20.227200000000195
  endloop
endfacet
facet normal 0.0 0.0 -1.0
  outer loop
    vertex 200.5664306077322 25.921970308278777 20.227200000000195
    vertex 191.0449074553455 28.59693440791743 20.227200000000195
    vertex 200.49370745534551 28.59693440791743 20.227200000000195
  endloop
endfacet
facet normal 0.0 0.0 -1.0
  outer loop
    vertex 204.3916131503639 28.59693440791743 20.227200000000195
    vertex 201.34121315036396 25.5465344079174 20.227200000000195
    vertex 201.34121315036396 28.59693440791743 20.227200000000195
  endloop
endfacet
facet normal 0.0 0.0 -1.0
  outer loop
    vertex 201.34121315036396 25.5465344079174 20.227200000000195
    vertex 204.3916131503639 28.59693440791743 20.227200000000195
    vertex 204.3916131503639 25.5465344079174 20.227200000000195
  endloop
endfacet
facet normal 0.9999999771721596 -0.0002136718984107367 1.7713783368888596e-20
  outer loop
    vertex 206.29690743836156 31.49837543602498 20.227200000000195
    vertex 206.29523059074828 23.09461133638636 22.012800000000183
    vertex 206.29523059074828 23.09461133638636 20.227200000000195
  endloop
endfacet
facet normal 0.9999999771721596 -0.0002136718984107367 1.7713783368888596e-20
  outer loop
    vertex 206.29523059074828 23.09461133638636 22.012800000000183
    vertex 206.29690743836156 31.49837543602498 20.227200000000195
    vertex 206.29690743836156 31.49837543602498 22.012800000000183
  endloop
endfacet
facet normal 0.0 -1.0 0.0
  outer loop
    vertex 206.29523059074828 23.09461133638636 22.012800000000183
    vertex 200.5664306077322 23.094770308278786 20.227200000000195
    vertex 206.29523059074828 23.09461133638636 20.227200000000195
  endloop
endfacet
facet normal 0.0 -1.0 0.0
  outer loop
    vertex 200.5664306077322 23.094770308278786 20.227200000000195
    vertex 206.29523059074828 23.09461133638636 22.012800000000183
    vertex 200.5664306077322 23.094770308278786 22.012800000000183
  endloop
endfacet
facet normal -1.0 0.0 0.0
  outer loop
    vertex 200.5664306077322 25.921970308278777 22.012800000000183
    vertex 200.5664306077322 23.094770308278786 20.227200000000195
    vertex 200.5664306077322 23.094770308278786 22.012800000000183
  endloop
endfacet
facet normal -1.0 0.0 0.0
  outer loop
    vertex 200.5664306077322 23.094770308278786 20.227200000000195
    vertex 200.5664306077322 25.921970308278777 22.012800000000183
    vertex 200.5664306077322 25.921970308278777 20.227200000000195
  endloop
endfacet
facet normal 0.0 -1.0 0.0
  outer loop
    vertex 200.5664306077322 25.921970308278777 22.012800000000183
    vertex 177.7256306077323 25.921970308278777 20.227200000000195
    vertex 200.5664306077322 25.921970308278777 20.227200000000195
  endloop
endfacet
facet normal 0.0 -1.0 0.0
  outer loop
    vertex 177.7256306077323 25.921970308278777 20.227200000000195
    vertex 200.5664306077322 25.921970308278777 22.012800000000183
    vertex 177.7256306077323 25.921970308278777 22.012800000000183
  endloop
endfacet
facet normal -1.0 0.0 0.0
  outer loop
    vertex 177.7256306077323 33.51077030827878 22.012800000000183
    vertex 177.7256306077323 25.921970308278777 20.227200000000195
    vertex 177.7256306077323 25.921970308278777 22.012800000000183
  endloop
endfacet
facet normal -1.0 0.0 0.0
  outer loop
    vertex 177.7256306077323 25.921970308278777 20.227200000000195
    vertex 177.7256306077323 33.51077030827878 22.012800000000183
    vertex 177.7256306077323 33.51077030827878 20.227200000000195
  endloop
endfacet
facet normal -0.692625973873372 0.7212969293681785 0.0
  outer loop
    vertex 177.7256306077323 33.51077030827878 22.012800000000183
    vertex 179.33556535408204 35.05671148196418 20.227200000000195
    vertex 177.7256306077323 33.51077030827878 20.227200000000195
  endloop
endfacet
facet normal -0.692625973873372 0.7212969293681785 0.0
  outer loop
    vertex 179.33556535408204 35.05671148196418 20.227200000000195
    vertex 177.7256306077323 33.51077030827878 22.012800000000183
    vertex 179.33556535408204 35.05671148196418 22.012800000000183
  endloop
endfacet
facet normal 0.7212969293681785 0.692625973873372 0.0
  outer loop
    vertex 179.33556535408204 35.05671148196418 20.227200000000195
    vertex 180.82005664661077 33.51077030827878 22.012800000000183
    vertex 180.82005664661077 33.51077030827878 20.227200000000195
  endloop
endfacet
facet normal 0.7212969293681785 0.692625973873372 0.0
  outer loop
    vertex 180.82005664661077 33.51077030827878 22.012800000000183
    vertex 179.33556535408204 35.05671148196418 20.227200000000195
    vertex 179.33556535408204 35.05671148196418 22.012800000000183
  endloop
endfacet
facet normal 0.7212969293681785 0.692625973873372 0.0
  outer loop
    vertex 180.82005664661077 33.51077030827878 20.227200000000195
    vertex 182.15987233047136 32.11549352810897 22.012800000000183
    vertex 182.15987233047136 32.11549352810897 20.227200000000195
  endloop
endfacet
facet normal 0.7212969293681785 0.692625973873372 0.0
  outer loop
    vertex 182.15987233047136 32.11549352810897 22.012800000000183
    vertex 180.82005664661077 33.51077030827878 20.227200000000195
    vertex 180.82005664661077 33.51077030827878 22.012800000000183
  endloop
endfacet
facet normal 0.692625973873372 -0.7212969293681785 0.0
  outer loop
    vertex 182.15987233047136 32.11549352810897 22.012800000000183
    vertex 180.82005664661077 30.82893440791742 20.227200000000195
    vertex 182.15987233047136 32.11549352810897 20.227200000000195
  endloop
endfacet
facet normal 0.692625973873372 -0.7212969293681785 0.0
  outer loop
    vertex 180.82005664661077 30.82893440791742 20.227200000000195
    vertex 182.15987233047136 32.11549352810897 22.012800000000183
    vertex 180.82005664661077 30.82893440791742 22.012800000000183
  endloop
endfacet
facet normal 1.0 0.0 0.0
  outer loop
    vertex 180.82005664661077 30.82893440791742 20.227200000000195
    vertex 180.82005664661077 28.596934407917423 22.012800000000183
    vertex 180.82005664661077 28.596934407917423 20.227200000000195
  endloop
endfacet
facet normal 1.0 0.0 0.0
  outer loop
    vertex 180.82005664661077 28.596934407917423 22.012800000000183
    vertex 180.82005664661077 30.82893440791742 20.227200000000195
    vertex 180.82005664661077 30.82893440791742 22.012800000000183
  endloop
endfacet
facet normal 0.0 1.0 0.0
  outer loop
    vertex 180.82005664661077 28.596934407917423 22.012800000000183
    vertex 182.15987233047136 28.596934407917423 20.227200000000195
    vertex 180.82005664661077 28.596934407917423 20.227200000000195
  endloop
endfacet
facet normal 0.0 1.0 0.0
  outer loop
    vertex 182.15987233047136 28.596934407917423 20.227200000000195
    vertex 180.82005664661077 28.596934407917423 22.012800000000183
    vertex 182.15987233047136 28.596934407917423 22.012800000000183
  endloop
endfacet
facet normal 0.0 1.0 0.0
  outer loop
    vertex 182.15987233047136 28.596934407917423 22.012800000000183
    vertex 184.1686723304714 28.596934407917423 20.227200000000195
    vertex 182.15987233047136 28.596934407917423 20.227200000000195
  endloop
endfacet
facet normal 0.0 1.0 0.0
  outer loop
    vertex 184.1686723304714 28.596934407917423 20.227200000000195
    vertex 182.15987233047136 28.596934407917423 22.012800000000183
    vertex 184.1686723304714 28.596934407917423 22.012800000000183
  endloop
endfacet
facet normal -1.0 0.0 0.0
  outer loop
    vertex 184.1686723304714 32.11549352810897 22.012800000000183
    vertex 184.1686723304714 28.596934407917423 20.227200000000195
    vertex 184.1686723304714 28.596934407917423 22.012800000000183
  endloop
endfacet
facet normal -1.0 0.0 0.0
  outer loop
    vertex 184.1686723304714 28.596934407917423 20.227200000000195
    vertex 184.1686723304714 32.11549352810897 22.012800000000183
    vertex 184.1686723304714 32.11549352810897 20.227200000000195
  endloop
endfacet
facet normal 0.7681243722613669 0.6403006705744428 0.0
  outer loop
    vertex 184.1686723304714 32.11549352810897 20.227200000000195
    vertex 187.10170745534552 28.596934407917423 22.012800000000183
    vertex 187.10170745534552 28.596934407917423 20.227200000000195
  endloop
endfacet
facet normal 0.7681243722613669 0.6403006705744428 0.0
  outer loop
    vertex 187.10170745534552 28.596934407917423 22.012800000000183
    vertex 184.1686723304714 32.11549352810897 20.227200000000195
    vertex 184.1686723304714 32.11549352810897 22.012800000000183
  endloop
endfacet
facet normal 0.0 1.0 0.0
  outer loop
    vertex 187.10170745534552 28.596934407917423 22.012800000000183
    vertex 188.66410745534552 28.596934407917423 20.227200000000195
    vertex 187.10170745534552 28.596934407917423 20.227200000000195
  endloop
endfacet
facet normal 0.0 1.0 0.0
  outer loop
    vertex 188.66410745534552 28.596934407917423 20.227200000000195
    vertex 187.10170745534552 28.596934407917423 22.012800000000183
    vertex 188.66410745534552 28.596934407917423 22.012800000000183
  endloop
endfacet
facet normal -1.0 0.0 0.0
  outer loop
    vertex 188.66410745534552 32.91213440791743 22.012800000000183
    vertex 188.66410745534552 28.596934407917423 20.227200000000195
    vertex 188.66410745534552 28.596934407917423 22.012800000000183
  endloop
endfacet
facet normal -1.0 0.0 0.0
  outer loop
    vertex 188.66410745534552 28.596934407917423 20.227200000000195
    vertex 188.66410745534552 32.91213440791743 22.012800000000183
    vertex 188.66410745534552 32.91213440791743 20.227200000000195
  endloop
endfacet
facet normal 0.0 1.0 0.0
  outer loop
    vertex 188.66410745534552 32.91213440791743 22.012800000000183
    vertex 191.0449074553455 32.91213440791743 20.227200000000195
    vertex 188.66410745534552 32.91213440791743 20.227200000000195
  endloop
endfacet
facet normal 0.0 1.0 0.0
  outer loop
    vertex 191.0449074553455 32.91213440791743 20.227200000000195
    vertex 188.66410745534552 32.91213440791743 22.012800000000183
    vertex 191.0449074553455 32.91213440791743 22.012800000000183
  endloop
endfacet
facet normal 1.0 0.0 0.0
  outer loop
    vertex 191.0449074553455 32.91213440791743 20.227200000000195
    vertex 191.0449074553455 28.59693440791743 22.012800000000183
    vertex 191.0449074553455 28.59693440791743 20.227200000000195
  endloop
endfacet
facet normal 1.0 0.0 0.0
  outer loop
    vertex 191.0449074553455 28.59693440791743 22.012800000000183
    vertex 191.0449074553455 32.91213440791743 20.227200000000195
    vertex 191.0449074553455 32.91213440791743 22.012800000000183
  endloop
endfacet
facet normal 0.0 1.0 0.0
  outer loop
    vertex 191.0449074553455 28.59693440791743 22.012800000000183
    vertex 200.49370745534551 28.59693440791743 20.227200000000195
    vertex 191.0449074553455 28.59693440791743 20.227200000000195
  endloop
endfacet
facet normal 0.0 1.0 0.0
  outer loop
    vertex 200.49370745534551 28.59693440791743 20.227200000000195
    vertex 191.0449074553455 28.59693440791743 22.012800000000183
    vertex 200.49370745534551 28.59693440791743 22.012800000000183
  endloop
endfacet
facet normal -1.0 0.0 0.0
  outer loop
    vertex 200.49370745534551 31.498534407917408 22.012800000000183
    vertex 200.49370745534551 28.59693440791743 20.227200000000195
    vertex 200.49370745534551 28.59693440791743 22.012800000000183
  endloop
endfacet
facet normal -1.0 0.0 0.0
  outer loop
    vertex 200.49370745534551 28.59693440791743 20.227200000000195
    vertex 200.49370745534551 31.498534407917408 22.012800000000183
    vertex 200.49370745534551 31.498534407917408 20.227200000000195
  endloop
endfacet
facet normal 0.0 1.0 0.0
  outer loop
    vertex 200.49370745534551 31.498534407917408 22.012800000000183
    vertex 203.54410745534557 31.498534407917408 20.227200000000195
    vertex 200.49370745534551 31.498534407917408 20.227200000000195
  endloop
endfacet
facet normal 0.0 1.0 0.0
  outer loop
    vertex 203.54410745534557 31.498534407917408 20.227200000000195
    vertex 200.49370745534551 31.498534407917408 22.012800000000183
    vertex 203.54410745534557 31.498534407917408 22.012800000000183
  endloop
endfacet
facet normal 0.0 1.0 0.0
  outer loop
    vertex 203.54410745534557 31.498534407917408 22.012800000000183
    vertex 206.29690743836156 31.49837543602498 20.227200000000195
    vertex 203.54410745534557 31.498534407917408 20.227200000000195
  endloop
endfacet
facet normal 0.0 1.0 0.0
  outer loop
    vertex 206.29690743836156 31.49837543602498 20.227200000000195
    vertex 203.54410745534557 31.498534407917408 22.012800000000183
    vertex 206.29690743836156 31.49837543602498 22.012800000000183
  endloop
endfacet
facet normal 0.0 -1.0 0.0
  outer loop
    vertex 204.3916131503639 28.59693440791743 22.012800000000183
    vertex 201.34121315036396 28.59693440791743 20.227200000000195
    vertex 204.3916131503639 28.59693440791743 20.227200000000195
  endloop
endfacet
facet normal 0.0 -1.0 0.0
  outer loop
    vertex 201.34121315036396 28.59693440791743 20.227200000000195
    vertex 204.3916131503639 28.59693440791743 22.012800000000183
    vertex 201.34121315036396 28.59693440791743 22.012800000000183
  endloop
endfacet
facet normal 0.0 1.0 0.0
  outer loop
    vertex 201.34121315036396 25.5465344079174 22.012800000000183
    vertex 204.3916131503639 25.5465344079174 20.227200000000195
    vertex 201.34121315036396 25.5465344079174 20.227200000000195
  endloop
endfacet
facet normal 0.0 1.0 0.0
  outer loop
    vertex 204.3916131503639 25.5465344079174 20.227200000000195
    vertex 201.34121315036396 25.5465344079174 22.012800000000183
    vertex 204.3916131503639 25.5465344079174 22.012800000000183
  endloop
endfacet
facet normal -1.0 0.0 0.0
  outer loop
    vertex 204.3916131503639 28.59693440791743 22.012800000000183
    vertex 204.3916131503639 25.5465344079174 20.227200000000195
    vertex 204.3916131503639 25.5465344079174 22.012800000000183
  endloop
endfacet
facet normal -1.0 0.0 0.0
  outer loop
    vertex 204.3916131503639 25.5465344079174 20.227200000000195
    vertex 204.3916131503639 28.59693440791743 22.012800000000183
    vertex 204.3916131503639 28.59693440791743 20.227200000000195
  endloop
endfacet
facet normal 1.0 0.0 0.0
  outer loop
    vertex 201.34121315036396 25.5465344079174 20.227200000000195
    vertex 201.34121315036396 26.75910106530567 20.82018058288799
    vertex 201.34121315036396 25.5465344079174 22.012800000000183
  endloop
endfacet
facet normal 1.0 0.0 0.0
  outer loop
    vertex 201.34121315036396 26.75910106530567 20.82018058288799
    vertex 201.34121315036396 25.5465344079174 20.227200000000195
    vertex 201.34121315036396 26.850669251331627 20.749917842509976
  endloop
endfacet
facet normal 1.0 0.0 0.0
  outer loop
    vertex 201.34121315036396 26.850669251331627 20.749917842509976
    vertex 201.34121315036396 25.5465344079174 20.227200000000195
    vertex 201.34121315036396 26.957302662451475 20.705748837422032
  endloop
endfacet
facet normal 1.0 0.0 0.0
  outer loop
    vertex 201.34121315036396 26.957302662451475 20.705748837422032
    vertex 201.34121315036396 25.5465344079174 20.227200000000195
    vertex 201.34121315036396 28.59693440791743 20.227200000000195
  endloop
endfacet
facet normal 1.0 0.0 0.0
  outer loop
    vertex 201.34121315036396 25.5465344079174 22.012800000000183
    vertex 201.34121315036396 26.75910106530567 20.82018058288799
    vertex 201.34121315036396 26.688838324927662 20.911748768913952
  endloop
endfacet
facet normal 1.0 0.0 0.0
  outer loop
    vertex 201.34121315036396 25.5465344079174 22.012800000000183
    vertex 201.34121315036396 26.688838324927662 20.911748768913952
    vertex 201.34121315036396 26.64466931983972 21.01838218003379
  endloop
endfacet
facet normal 1.0 0.0 0.0
  outer loop
    vertex 201.34121315036396 25.5465344079174 22.012800000000183
    vertex 201.34121315036396 26.64466931983972 21.01838218003379
    vertex 201.34121315036396 26.62960409474583 21.132813925499732
  endloop
endfacet
facet normal 1.0 0.0 0.0
  outer loop
    vertex 201.34121315036396 26.957302662451475 20.705748837422032
    vertex 201.34121315036396 28.59693440791743 20.227200000000195
    vertex 201.34121315036396 27.071734407917415 20.690683612328154
  endloop
endfacet
facet normal 1.0 0.0 0.0
  outer loop
    vertex 201.34121315036396 27.071734407917415 20.690683612328154
    vertex 201.34121315036396 28.59693440791743 20.227200000000195
    vertex 201.34121315036396 27.18616615338336 20.705748837422032
  endloop
endfacet
facet normal 1.0 0.0 0.0
  outer loop
    vertex 201.34121315036396 27.18616615338336 20.705748837422032
    vertex 201.34121315036396 28.59693440791743 20.227200000000195
    vertex 201.34121315036396 27.29279956450321 20.749917842509976
  endloop
endfacet
facet normal 1.0 0.0 0.0
  outer loop
    vertex 201.34121315036396 27.29279956450321 20.749917842509976
    vertex 201.34121315036396 28.59693440791743 20.227200000000195
    vertex 201.34121315036396 27.38436775052918 20.82018058288799
  endloop
endfacet
facet normal 1.0 0.0 0.0
  outer loop
    vertex 201.34121315036396 27.38436775052918 20.82018058288799
    vertex 201.34121315036396 28.59693440791743 20.227200000000195
    vertex 201.34121315036396 27.45463049090718 20.911748768913952
  endloop
endfacet
facet normal 1.0 0.0 0.0
  outer loop
    vertex 201.34121315036396 27.45463049090718 20.911748768913952
    vertex 201.34121315036396 28.59693440791743 20.227200000000195
    vertex 201.34121315036396 27.498799495995126 21.01838218003379
  endloop
endfacet
facet normal 1.0 0.0 0.0
  outer loop
    vertex 201.34121315036396 27.498799495995126 21.01838218003379
    vertex 201.34121315036396 28.59693440791743 20.227200000000195
    vertex 201.34121315036396 27.513864721088996 21.132813925499732
  endloop
endfacet
facet normal 1.0 0.0 0.0
  outer loop
    vertex 201.34121315036396 25.5465344079174 22.012800000000183
    vertex 201.34121315036396 26.957302662451475 21.559879013577437
    vertex 201.34121315036396 28.59693440791743 22.012800000000183
  endloop
endfacet
facet normal 1.0 0.0 0.0
  outer loop
    vertex 201.34121315036396 26.957302662451475 21.559879013577437
    vertex 201.34121315036396 25.5465344079174 22.012800000000183
    vertex 201.34121315036396 26.850669251331627 21.51571000848949
  endloop
endfacet
facet normal 1.0 0.0 0.0
  outer loop
    vertex 201.34121315036396 26.850669251331627 21.51571000848949
    vertex 201.34121315036396 25.5465344079174 22.012800000000183
    vertex 201.34121315036396 26.75910106530567 21.445447268111483
  endloop
endfacet
facet normal 1.0 0.0 0.0
  outer loop
    vertex 201.34121315036396 26.75910106530567 21.445447268111483
    vertex 201.34121315036396 25.5465344079174 22.012800000000183
    vertex 201.34121315036396 26.688838324927662 21.353879082085523
  endloop
endfacet
facet normal 1.0 0.0 0.0
  outer loop
    vertex 201.34121315036396 26.688838324927662 21.353879082085523
    vertex 201.34121315036396 25.5465344079174 22.012800000000183
    vertex 201.34121315036396 26.64466931983972 21.247245670965675
  endloop
endfacet
facet normal 1.0 0.0 0.0
  outer loop
    vertex 201.34121315036396 26.64466931983972 21.247245670965675
    vertex 201.34121315036396 25.5465344079174 22.012800000000183
    vertex 201.34121315036396 26.62960409474583 21.132813925499732
  endloop
endfacet
facet normal 1.0 0.0 0.0
  outer loop
    vertex 201.34121315036396 28.59693440791743 22.012800000000183
    vertex 201.34121315036396 26.957302662451475 21.559879013577437
    vertex 201.34121315036396 27.071734407917415 21.574944238671307
  endloop
endfacet
facet normal 1.0 0.0 0.0
  outer loop
    vertex 201.34121315036396 28.59693440791743 22.012800000000183
    vertex 201.34121315036396 27.071734407917415 21.574944238671307
    vertex 201.34121315036396 27.18616615338336 21.559879013577437
  endloop
endfacet
facet normal 1.0 0.0 0.0
  outer loop
    vertex 201.34121315036396 28.59693440791743 22.012800000000183
    vertex 201.34121315036396 27.18616615338336 21.559879013577437
    vertex 201.34121315036396 27.29279956450321 21.51571000848949
  endloop
endfacet
facet normal 1.0 0.0 0.0
  outer loop
    vertex 201.34121315036396 28.59693440791743 22.012800000000183
    vertex 201.34121315036396 27.29279956450321 21.51571000848949
    vertex 201.34121315036396 27.38436775052918 21.445447268111483
  endloop
endfacet
facet normal 1.0 0.0 0.0
  outer loop
    vertex 201.34121315036396 28.59693440791743 22.012800000000183
    vertex 201.34121315036396 27.38436775052918 21.445447268111483
    vertex 201.34121315036396 27.45463049090718 21.353879082085523
  endloop
endfacet
facet normal 1.0 0.0 0.0
  outer loop
    vertex 201.34121315036396 28.59693440791743 22.012800000000183
    vertex 201.34121315036396 27.45463049090718 21.353879082085523
    vertex 201.34121315036396 27.498799495995126 21.24724567096568
  endloop
endfacet
facet normal 1.0 0.0 0.0
  outer loop
    vertex 201.34121315036396 28.59693440791743 22.012800000000183
    vertex 201.34121315036396 27.498799495995126 21.24724567096568
    vertex 201.34121315036396 27.513864721088996 21.132813925499732
  endloop
endfacet
facet normal 1.0 0.0 0.0
  outer loop
    vertex 201.34121315036396 28.59693440791743 22.012800000000183
    vertex 201.34121315036396 27.513864721088996 21.132813925499732
    vertex 201.34121315036396 28.59693440791743 20.227200000000195
  endloop
endfacet
facet normal 1.0 0.0 0.0
  outer loop
    vertex 205.13561315036367 26.64466931983972 21.01838218003379
    vertex 205.13561315036367 26.64466931983972 21.247245670965675
    vertex 205.13561315036367 26.62960409474583 21.132813925499732
  endloop
endfacet
facet normal 1.0 0.0 0.0
  outer loop
    vertex 205.13561315036367 26.64466931983972 21.247245670965675
    vertex 205.13561315036367 26.64466931983972 21.01838218003379
    vertex 205.13561315036367 26.688838324927662 20.911748768913952
  endloop
endfacet
facet normal 1.0 0.0 0.0
  outer loop
    vertex 205.13561315036367 26.64466931983972 21.247245670965675
    vertex 205.13561315036367 26.688838324927662 20.911748768913952
    vertex 205.13561315036367 26.688838324927662 21.353879082085523
  endloop
endfacet
facet normal 1.0 0.0 0.0
  outer loop
    vertex 205.13561315036367 26.688838324927662 21.353879082085523
    vertex 205.13561315036367 26.688838324927662 20.911748768913952
    vertex 205.13561315036367 26.75910106530567 20.82018058288799
  endloop
endfacet
facet normal 1.0 0.0 0.0
  outer loop
    vertex 205.13561315036367 26.688838324927662 21.353879082085523
    vertex 205.13561315036367 26.75910106530567 20.82018058288799
    vertex 205.13561315036367 26.75910106530567 21.445447268111483
  endloop
endfacet
facet normal 1.0 0.0 0.0
  outer loop
    vertex 205.13561315036367 26.75910106530567 21.445447268111483
    vertex 205.13561315036367 26.75910106530567 20.82018058288799
    vertex 205.13561315036367 26.850669251331627 20.749917842509976
  endloop
endfacet
facet normal 1.0 0.0 0.0
  outer loop
    vertex 205.13561315036367 26.75910106530567 21.445447268111483
    vertex 205.13561315036367 26.850669251331627 20.749917842509976
    vertex 205.13561315036367 26.850669251331627 21.51571000848949
  endloop
endfacet
facet normal 1.0 0.0 0.0
  outer loop
    vertex 205.13561315036367 26.850669251331627 21.51571000848949
    vertex 205.13561315036367 26.850669251331627 20.749917842509976
    vertex 205.13561315036367 26.957302662451475 20.705748837422032
  endloop
endfacet
facet normal 1.0 0.0 0.0
  outer loop
    vertex 205.13561315036367 26.850669251331627 21.51571000848949
    vertex 205.13561315036367 26.957302662451475 20.705748837422032
    vertex 205.13561315036367 26.957302662451475 21.559879013577437
  endloop
endfacet
facet normal 1.0 0.0 0.0
  outer loop
    vertex 205.13561315036367 26.957302662451475 21.559879013577437
    vertex 205.13561315036367 26.957302662451475 20.705748837422032
    vertex 205.13561315036367 27.071734407917415 20.690683612328154
  endloop
endfacet
facet normal 1.0 0.0 0.0
  outer loop
    vertex 205.13561315036367 26.957302662451475 21.559879013577437
    vertex 205.13561315036367 27.071734407917415 20.690683612328154
    vertex 205.13561315036367 27.071734407917415 21.574944238671307
  endloop
endfacet
facet normal 1.0 0.0 0.0
  outer loop
    vertex 205.13561315036367 27.071734407917415 21.574944238671307
    vertex 205.13561315036367 27.071734407917415 20.690683612328154
    vertex 205.13561315036367 27.18616615338336 20.705748837422032
  endloop
endfacet
facet normal 1.0 0.0 0.0
  outer loop
    vertex 205.13561315036367 27.071734407917415 21.574944238671307
    vertex 205.13561315036367 27.18616615338336 20.705748837422032
    vertex 205.13561315036367 27.18616615338336 21.559879013577437
  endloop
endfacet
facet normal 1.0 0.0 0.0
  outer loop
    vertex 205.13561315036367 27.18616615338336 21.559879013577437
    vertex 205.13561315036367 27.18616615338336 20.705748837422032
    vertex 205.13561315036367 27.29279956450321 20.749917842509976
  endloop
endfacet
facet normal 1.0 0.0 0.0
  outer loop
    vertex 205.13561315036367 27.18616615338336 21.559879013577437
    vertex 205.13561315036367 27.29279956450321 20.749917842509976
    vertex 205.13561315036367 27.29279956450321 21.51571000848949
  endloop
endfacet
facet normal 1.0 0.0 0.0
  outer loop
    vertex 205.13561315036367 27.29279956450321 21.51571000848949
    vertex 205.13561315036367 27.29279956450321 20.749917842509976
    vertex 205.13561315036367 27.38436775052918 20.82018058288799
  endloop
endfacet
facet normal 1.0 0.0 0.0
  outer loop
    vertex 205.13561315036367 27.29279956450321 21.51571000848949
    vertex 205.13561315036367 27.38436775052918 20.82018058288799
    vertex 205.13561315036367 27.38436775052918 21.445447268111483
  endloop
endfacet
facet normal 1.0 0.0 0.0
  outer loop
    vertex 205.13561315036367 27.38436775052918 21.445447268111483
    vertex 205.13561315036367 27.38436775052918 20.82018058288799
    vertex 205.13561315036367 27.45463049090718 20.911748768913952
  endloop
endfacet
facet normal 1.0 0.0 0.0
  outer loop
    vertex 205.13561315036367 27.38436775052918 21.445447268111483
    vertex 205.13561315036367 27.45463049090718 20.911748768913952
    vertex 205.13561315036367 27.45463049090718 21.353879082085523
  endloop
endfacet
facet normal 1.0 0.0 0.0
  outer loop
    vertex 205.13561315036367 27.45463049090718 21.353879082085523
    vertex 205.13561315036367 27.45463049090718 20.911748768913952
    vertex 205.13561315036367 27.498799495995126 21.01838218003379
  endloop
endfacet
facet normal 1.0 0.0 0.0
  outer loop
    vertex 205.13561315036367 27.45463049090718 21.353879082085523
    vertex 205.13561315036367 27.498799495995126 21.01838218003379
    vertex 205.13561315036367 27.498799495995126 21.24724567096568
  endloop
endfacet
facet normal 1.0 0.0 0.0
  outer loop
    vertex 205.13561315036367 27.498799495995126 21.24724567096568
    vertex 205.13561315036367 27.498799495995126 21.01838218003379
    vertex 205.13561315036367 27.513864721088996 21.132813925499732
  endloop
endfacet
facet normal 0.0 -0.9914448613738105 -0.13052619222005105
  outer loop
    vertex 205.13561315036367 26.62960409474583 21.132813925499732
    vertex 201.34121315036396 26.64466931983972 21.01838218003379
    vertex 205.13561315036367 26.64466931983972 21.01838218003379
  endloop
endfacet
facet normal 0.0 -0.9914448613738105 -0.13052619222005105
  outer loop
    vertex 201.34121315036396 26.64466931983972 21.01838218003379
    vertex 205.13561315036367 26.62960409474583 21.132813925499732
    vertex 201.34121315036396 26.62960409474583 21.132813925499732
  endloop
endfacet
facet normal 0.0 -0.9238795325112867 -0.38268343236509017
  outer loop
    vertex 205.13561315036367 26.64466931983972 21.01838218003379
    vertex 201.34121315036396 26.688838324927662 20.911748768913952
    vertex 205.13561315036367 26.688838324927662 20.911748768913952
  endloop
endfacet
facet normal 0.0 -0.9238795325112867 -0.38268343236509017
  outer loop
    vertex 201.34121315036396 26.688838324927662 20.911748768913952
    vertex 205.13561315036367 26.64466931983972 21.01838218003379
    vertex 201.34121315036396 26.64466931983972 21.01838218003379
  endloop
endfacet
facet normal 0.0 -0.7933533402912346 -0.6087614290087214
  outer loop
    vertex 205.13561315036367 26.688838324927662 20.911748768913952
    vertex 201.34121315036396 26.75910106530567 20.82018058288799
    vertex 205.13561315036367 26.75910106530567 20.82018058288799
  endloop
endfacet
facet normal 0.0 -0.7933533402912346 -0.6087614290087214
  outer loop
    vertex 201.34121315036396 26.75910106530567 20.82018058288799
    vertex 205.13561315036367 26.688838324927662 20.911748768913952
    vertex 201.34121315036396 26.688838324927662 20.911748768913952
  endloop
endfacet
facet normal 0.0 -0.6087614290087208 -0.793353340291235
  outer loop
    vertex 205.13561315036367 26.850669251331627 20.749917842509976
    vertex 201.34121315036396 26.75910106530567 20.82018058288799
    vertex 201.34121315036396 26.850669251331627 20.749917842509976
  endloop
endfacet
facet normal 0.0 -0.6087614290087208 -0.793353340291235
  outer loop
    vertex 201.34121315036396 26.75910106530567 20.82018058288799
    vertex 205.13561315036367 26.850669251331627 20.749917842509976
    vertex 205.13561315036367 26.75910106530567 20.82018058288799
  endloop
endfacet
facet normal 0.0 -0.38268343236509017 -0.9238795325112867
  outer loop
    vertex 205.13561315036367 26.957302662451475 20.705748837422032
    vertex 201.34121315036396 26.850669251331627 20.749917842509976
    vertex 201.34121315036396 26.957302662451475 20.705748837422032
  endloop
endfacet
facet normal 0.0 -0.38268343236509017 -0.9238795325112867
  outer loop
    vertex 201.34121315036396 26.850669251331627 20.749917842509976
    vertex 205.13561315036367 26.957302662451475 20.705748837422032
    vertex 205.13561315036367 26.850669251331627 20.749917842509976
  endloop
endfacet
facet normal 0.0 -0.13052619222005155 -0.9914448613738105
  outer loop
    vertex 205.13561315036367 27.071734407917415 20.690683612328154
    vertex 201.34121315036396 26.957302662451475 20.705748837422032
    vertex 201.34121315036396 27.071734407917415 20.690683612328154
  endloop
endfacet
facet normal 0.0 -0.13052619222005155 -0.9914448613738105
  outer loop
    vertex 201.34121315036396 26.957302662451475 20.705748837422032
    vertex 205.13561315036367 27.071734407917415 20.690683612328154
    vertex 205.13561315036367 26.957302662451475 20.705748837422032
  endloop
endfacet
facet normal 0.0 0.13052619222005196 -0.9914448613738105
  outer loop
    vertex 205.13561315036367 27.18616615338336 20.705748837422032
    vertex 201.34121315036396 27.071734407917415 20.690683612328154
    vertex 201.34121315036396 27.18616615338336 20.705748837422032
  endloop
endfacet
facet normal 0.0 0.13052619222005196 -0.9914448613738105
  outer loop
    vertex 201.34121315036396 27.071734407917415 20.690683612328154
    vertex 205.13561315036367 27.18616615338336 20.705748837422032
    vertex 205.13561315036367 27.071734407917415 20.690683612328154
  endloop
endfacet
facet normal 0.0 0.38268343236509106 -0.9238795325112863
  outer loop
    vertex 205.13561315036367 27.29279956450321 20.749917842509976
    vertex 201.34121315036396 27.18616615338336 20.705748837422032
    vertex 201.34121315036396 27.29279956450321 20.749917842509976
  endloop
endfacet
facet normal 0.0 0.38268343236509106 -0.9238795325112863
  outer loop
    vertex 201.34121315036396 27.18616615338336 20.705748837422032
    vertex 205.13561315036367 27.29279956450321 20.749917842509976
    vertex 205.13561315036367 27.18616615338336 20.705748837422032
  endloop
endfacet
facet normal 0.0 0.6087614290087208 -0.793353340291235
  outer loop
    vertex 205.13561315036367 27.38436775052918 20.82018058288799
    vertex 201.34121315036396 27.29279956450321 20.749917842509976
    vertex 201.34121315036396 27.38436775052918 20.82018058288799
  endloop
endfacet
facet normal 0.0 0.6087614290087208 -0.793353340291235
  outer loop
    vertex 201.34121315036396 27.29279956450321 20.749917842509976
    vertex 205.13561315036367 27.38436775052918 20.82018058288799
    vertex 205.13561315036367 27.29279956450321 20.749917842509976
  endloop
endfacet
facet normal 0.0 0.7933533402912352 -0.6087614290087207
  outer loop
    vertex 201.34121315036396 27.45463049090718 20.911748768913952
    vertex 205.13561315036367 27.38436775052918 20.82018058288799
    vertex 201.34121315036396 27.38436775052918 20.82018058288799
  endloop
endfacet
facet normal 0.0 0.7933533402912352 -0.6087614290087207
  outer loop
    vertex 205.13561315036367 27.38436775052918 20.82018058288799
    vertex 201.34121315036396 27.45463049090718 20.911748768913952
    vertex 205.13561315036367 27.45463049090718 20.911748768913952
  endloop
endfacet
facet normal 0.0 0.9238795325112873 -0.3826834323650884
  outer loop
    vertex 201.34121315036396 27.498799495995126 21.01838218003379
    vertex 205.13561315036367 27.45463049090718 20.911748768913952
    vertex 201.34121315036396 27.45463049090718 20.911748768913952
  endloop
endfacet
facet normal 0.0 0.9238795325112873 -0.3826834323650884
  outer loop
    vertex 205.13561315036367 27.45463049090718 20.911748768913952
    vertex 201.34121315036396 27.498799495995126 21.01838218003379
    vertex 205.13561315036367 27.498799495995126 21.01838218003379
  endloop
endfacet
facet normal 0.0 0.9914448613738105 -0.13052619222005155
  outer loop
    vertex 201.34121315036396 27.513864721088996 21.132813925499732
    vertex 205.13561315036367 27.498799495995126 21.01838218003379
    vertex 201.34121315036396 27.498799495995126 21.01838218003379
  endloop
endfacet
facet normal 0.0 0.9914448613738105 -0.13052619222005155
  outer loop
    vertex 205.13561315036367 27.498799495995126 21.01838218003379
    vertex 201.34121315036396 27.513864721088996 21.132813925499732
    vertex 205.13561315036367 27.513864721088996 21.132813925499732
  endloop
endfacet
facet normal 0.0 0.9914448613738103 0.13052619222005277
  outer loop
    vertex 201.34121315036396 27.498799495995126 21.24724567096568
    vertex 205.13561315036367 27.513864721088996 21.132813925499732
    vertex 201.34121315036396 27.513864721088996 21.132813925499732
  endloop
endfacet
facet normal 0.0 0.9914448613738103 0.13052619222005277
  outer loop
    vertex 205.13561315036367 27.513864721088996 21.132813925499732
    vertex 201.34121315036396 27.498799495995126 21.24724567096568
    vertex 205.13561315036367 27.498799495995126 21.24724567096568
  endloop
endfacet
facet normal 0.0 0.9238795325112867 0.38268343236508995
  outer loop
    vertex 201.34121315036396 27.45463049090718 21.353879082085523
    vertex 205.13561315036367 27.498799495995126 21.24724567096568
    vertex 201.34121315036396 27.498799495995126 21.24724567096568
  endloop
endfacet
facet normal 0.0 0.9238795325112867 0.38268343236508995
  outer loop
    vertex 205.13561315036367 27.498799495995126 21.24724567096568
    vertex 201.34121315036396 27.45463049090718 21.353879082085523
    vertex 205.13561315036367 27.45463049090718 21.353879082085523
  endloop
endfacet
facet normal 0.0 0.7933533402912346 0.6087614290087214
  outer loop
    vertex 201.34121315036396 27.38436775052918 21.445447268111483
    vertex 205.13561315036367 27.45463049090718 21.353879082085523
    vertex 201.34121315036396 27.45463049090718 21.353879082085523
  endloop
endfacet
facet normal 0.0 0.7933533402912346 0.6087614290087214
  outer loop
    vertex 205.13561315036367 27.45463049090718 21.353879082085523
    vertex 201.34121315036396 27.38436775052918 21.445447268111483
    vertex 205.13561315036367 27.38436775052918 21.445447268111483
  endloop
endfacet
facet normal 0.0 0.6087614290087214 0.7933533402912346
  outer loop
    vertex 205.13561315036367 27.29279956450321 21.51571000848949
    vertex 201.34121315036396 27.38436775052918 21.445447268111483
    vertex 201.34121315036396 27.29279956450321 21.51571000848949
  endloop
endfacet
facet normal 0.0 0.6087614290087214 0.7933533402912346
  outer loop
    vertex 201.34121315036396 27.38436775052918 21.445447268111483
    vertex 205.13561315036367 27.29279956450321 21.51571000848949
    vertex 205.13561315036367 27.38436775052918 21.445447268111483
  endloop
endfacet
facet normal 0.0 0.38268343236508817 0.9238795325112874
  outer loop
    vertex 205.13561315036367 27.18616615338336 21.559879013577437
    vertex 201.34121315036396 27.29279956450321 21.51571000848949
    vertex 201.34121315036396 27.18616615338336 21.559879013577437
  endloop
endfacet
facet normal 0.0 0.38268343236508817 0.9238795325112874
  outer loop
    vertex 201.34121315036396 27.29279956450321 21.51571000848949
    vertex 205.13561315036367 27.18616615338336 21.559879013577437
    vertex 205.13561315036367 27.29279956450321 21.51571000848949
  endloop
endfacet
facet normal 0.0 0.13052619222005155 0.9914448613738105
  outer loop
    vertex 205.13561315036367 27.071734407917415 21.574944238671307
    vertex 201.34121315036396 27.18616615338336 21.559879013577437
    vertex 201.34121315036396 27.071734407917415 21.574944238671307
  endloop
endfacet
facet normal 0.0 0.13052619222005155 0.9914448613738105
  outer loop
    vertex 201.34121315036396 27.18616615338336 21.559879013577437
    vertex 205.13561315036367 27.071734407917415 21.574944238671307
    vertex 205.13561315036367 27.18616615338336 21.559879013577437
  endloop
endfacet
facet normal 0.0 -0.13052619222005105 0.9914448613738105
  outer loop
    vertex 205.13561315036367 26.957302662451475 21.559879013577437
    vertex 201.34121315036396 27.071734407917415 21.574944238671307
    vertex 201.34121315036396 26.957302662451475 21.559879013577437
  endloop
endfacet
facet normal 0.0 -0.13052619222005105 0.9914448613738105
  outer loop
    vertex 201.34121315036396 27.071734407917415 21.574944238671307
    vertex 205.13561315036367 26.957302662451475 21.559879013577437
    vertex 205.13561315036367 27.071734407917415 21.574944238671307
  endloop
endfacet
facet normal 0.0 -0.38268343236509017 0.9238795325112867
  outer loop
    vertex 205.13561315036367 26.850669251331627 21.51571000848949
    vertex 201.34121315036396 26.957302662451475 21.559879013577437
    vertex 201.34121315036396 26.850669251331627 21.51571000848949
  endloop
endfacet
facet normal 0.0 -0.38268343236509017 0.9238795325112867
  outer loop
    vertex 201.34121315036396 26.957302662451475 21.559879013577437
    vertex 205.13561315036367 26.850669251331627 21.51571000848949
    vertex 205.13561315036367 26.957302662451475 21.559879013577437
  endloop
endfacet
facet normal 0.0 -0.6087614290087218 0.7933533402912344
  outer loop
    vertex 205.13561315036367 26.75910106530567 21.445447268111483
    vertex 201.34121315036396 26.850669251331627 21.51571000848949
    vertex 201.34121315036396 26.75910106530567 21.445447268111483
  endloop
endfacet
facet normal 0.0 -0.6087614290087218 0.7933533402912344
  outer loop
    vertex 201.34121315036396 26.850669251331627 21.51571000848949
    vertex 205.13561315036367 26.75910106530567 21.445447268111483
    vertex 205.13561315036367 26.850669251331627 21.51571000848949
  endloop
endfacet
facet normal 0.0 -0.793353340291235 0.6087614290087208
  outer loop
    vertex 205.13561315036367 26.75910106530567 21.445447268111483
    vertex 201.34121315036396 26.688838324927662 21.353879082085523
    vertex 205.13561315036367 26.688838324927662 21.353879082085523
  endloop
endfacet
facet normal 0.0 -0.793353340291235 0.6087614290087208
  outer loop
    vertex 201.34121315036396 26.688838324927662 21.353879082085523
    vertex 205.13561315036367 26.75910106530567 21.445447268111483
    vertex 201.34121315036396 26.75910106530567 21.445447268111483
  endloop
endfacet
facet normal 0.0 -0.9238795325112867 0.38268343236509017
  outer loop
    vertex 205.13561315036367 26.688838324927662 21.353879082085523
    vertex 201.34121315036396 26.64466931983972 21.247245670965675
    vertex 205.13561315036367 26.64466931983972 21.247245670965675
  endloop
endfacet
facet normal 0.0 -0.9238795325112867 0.38268343236509017
  outer loop
    vertex 201.34121315036396 26.64466931983972 21.247245670965675
    vertex 205.13561315036367 26.688838324927662 21.353879082085523
    vertex 201.34121315036396 26.688838324927662 21.353879082085523
  endloop
endfacet
facet normal 0.0 -0.9914448613738105 0.13052619222005155
  outer loop
    vertex 205.13561315036367 26.64466931983972 21.247245670965675
    vertex 201.34121315036396 26.62960409474583 21.132813925499732
    vertex 205.13561315036367 26.62960409474583 21.132813925499732
  endloop
endfacet
facet normal 0.0 -0.9914448613738105 0.13052619222005155
  outer loop
    vertex 201.34121315036396 26.62960409474583 21.132813925499732
    vertex 205.13561315036367 26.64466931983972 21.247245670965675
    vertex 201.34121315036396 26.64466931983972 21.247245670965675
  endloop
endfacet
facet normal 0.0 0.0 1.0
  outer loop
    vertex 206.29523059074828 23.09461133638636 22.012800000000183
    vertex 200.5664306077322 25.921970308278777 22.012800000000183
    vertex 200.5664306077322 23.094770308278786 22.012800000000183
  endloop
endfacet
facet normal 0.0 0.0 1.0
  outer loop
    vertex 200.5664306077322 25.921970308278777 22.012800000000183
    vertex 206.29523059074828 23.09461133638636 22.012800000000183
    vertex 201.34121315036396 25.5465344079174 22.012800000000183
  endloop
endfacet
facet normal 0.0 0.0 1.0
  outer loop
    vertex 201.34121315036396 25.5465344079174 22.012800000000183
    vertex 206.29523059074828 23.09461133638636 22.012800000000183
    vertex 204.3916131503639 25.5465344079174 22.012800000000183
  endloop
endfacet
facet normal 0.0 0.0 1.0
  outer loop
    vertex 204.3916131503639 25.5465344079174 22.012800000000183
    vertex 206.29523059074828 23.09461133638636 22.012800000000183
    vertex 204.3916131503639 28.59693440791743 22.012800000000183
  endloop
endfacet
facet normal 0.0 0.0 1.0
  outer loop
    vertex 204.3916131503639 28.59693440791743 22.012800000000183
    vertex 206.29523059074828 23.09461133638636 22.012800000000183
    vertex 204.6985911553261 29.46427937540161 22.012800000000183
  endloop
endfacet
facet normal 0.0 0.0 1.0
  outer loop
    vertex 204.3916131503639 28.59693440791743 22.012800000000183
    vertex 204.6985911553261 29.46427937540161 22.012800000000183
    vertex 204.6757750886092 29.63758460800226 22.012800000000183
  endloop
endfacet
facet normal 0.0 0.0 1.0
  outer loop
    vertex 204.6985911553261 29.46427937540161 22.012800000000183
    vertex 206.29523059074828 23.09461133638636 22.012800000000183
    vertex 204.7654844782351 29.302784608002277 22.012800000000183
  endloop
endfacet
facet normal 0.0 0.0 1.0
  outer loop
    vertex 204.7654844782351 29.302784608002277 22.012800000000183
    vertex 206.29523059074828 23.09461133638636 22.012800000000183
    vertex 204.87189638792665 29.164105907319758 22.012800000000183
  endloop
endfacet
facet normal 0.0 0.0 1.0
  outer loop
    vertex 204.87189638792665 29.164105907319758 22.012800000000183
    vertex 206.29523059074828 23.09461133638636 22.012800000000183
    vertex 205.01057508860916 29.057693997628213 22.012800000000183
  endloop
endfacet
facet normal 0.0 0.0 1.0
  outer loop
    vertex 205.01057508860916 29.057693997628213 22.012800000000183
    vertex 206.29523059074828 23.09461133638636 22.012800000000183
    vertex 205.1720698560086 28.990800674719114 22.012800000000183
  endloop
endfacet
facet normal 0.0 0.0 1.0
  outer loop
    vertex 205.1720698560086 28.990800674719114 22.012800000000183
    vertex 206.29523059074828 23.09461133638636 22.012800000000183
    vertex 205.34537508860927 28.96798460800228 22.012800000000183
  endloop
endfacet
facet normal 0.0 0.0 1.0
  outer loop
    vertex 205.34537508860927 28.96798460800228 22.012800000000183
    vertex 206.29523059074828 23.09461133638636 22.012800000000183
    vertex 205.51868032121 28.990800674719114 22.012800000000183
  endloop
endfacet
facet normal 0.0 0.0 1.0
  outer loop
    vertex 205.51868032121 28.990800674719114 22.012800000000183
    vertex 206.29523059074828 23.09461133638636 22.012800000000183
    vertex 205.68017508860925 29.057693997628213 22.012800000000183
  endloop
endfacet
facet normal 0.0 0.0 1.0
  outer loop
    vertex 205.68017508860925 29.057693997628213 22.012800000000183
    vertex 206.29523059074828 23.09461133638636 22.012800000000183
    vertex 205.81885378929175 29.164105907319758 22.012800000000183
  endloop
endfacet
facet normal 0.0 0.0 1.0
  outer loop
    vertex 205.81885378929175 29.164105907319758 22.012800000000183
    vertex 206.29523059074828 23.09461133638636 22.012800000000183
    vertex 205.9252656989832 29.302784608002277 22.012800000000183
  endloop
endfacet
facet normal 0.0 0.0 1.0
  outer loop
    vertex 205.9252656989832 29.302784608002277 22.012800000000183
    vertex 206.29523059074828 23.09461133638636 22.012800000000183
    vertex 205.9921590218925 29.46427937540161 22.012800000000183
  endloop
endfacet
facet normal 0.0 0.0 1.0
  outer loop
    vertex 205.9921590218925 29.46427937540161 22.012800000000183
    vertex 206.29523059074828 23.09461133638636 22.012800000000183
    vertex 206.01497508860922 29.63758460800226 22.012800000000183
  endloop
endfacet
facet normal 0.0 0.0 1.0
  outer loop
    vertex 177.7256306077323 25.921970308278777 22.012800000000183
    vertex 180.82005664661077 28.596934407917423 22.012800000000183
    vertex 177.7256306077323 33.51077030827878 22.012800000000183
  endloop
endfacet
facet normal 0.0 0.0 1.0
  outer loop
    vertex 180.82005664661077 28.596934407917423 22.012800000000183
    vertex 177.7256306077323 25.921970308278777 22.012800000000183
    vertex 200.5664306077322 25.921970308278777 22.012800000000183
  endloop
endfacet
facet normal 0.0 0.0 1.0
  outer loop
    vertex 177.7256306077323 33.51077030827878 22.012800000000183
    vertex 180.82005664661077 28.596934407917423 22.012800000000183
    vertex 179.33556535408204 35.05671148196418 22.012800000000183
  endloop
endfacet
facet normal 0.0 0.0 1.0
  outer loop
    vertex 180.82005664661077 28.596934407917423 22.012800000000183
    vertex 200.5664306077322 25.921970308278777 22.012800000000183
    vertex 182.15987233047136 28.596934407917423 22.012800000000183
  endloop
endfacet
facet normal 0.0 0.0 1.0
  outer loop
    vertex 182.15987233047136 28.596934407917423 22.012800000000183
    vertex 200.5664306077322 25.921970308278777 22.012800000000183
    vertex 184.1686723304714 28.596934407917423 22.012800000000183
  endloop
endfacet
facet normal 0.0 0.0 1.0
  outer loop
    vertex 184.1686723304714 28.596934407917423 22.012800000000183
    vertex 200.5664306077322 25.921970308278777 22.012800000000183
    vertex 187.10170745534552 28.596934407917423 22.012800000000183
  endloop
endfacet
facet normal 0.0 0.0 1.0
  outer loop
    vertex 184.1686723304714 28.596934407917423 22.012800000000183
    vertex 187.10170745534552 28.596934407917423 22.012800000000183
    vertex 184.1686723304714 32.11549352810897 22.012800000000183
  endloop
endfacet
facet normal 0.0 0.0 1.0
  outer loop
    vertex 187.10170745534552 28.596934407917423 22.012800000000183
    vertex 200.5664306077322 25.921970308278777 22.012800000000183
    vertex 188.66410745534552 28.596934407917423 22.012800000000183
  endloop
endfacet
facet normal 0.0 0.0 1.0
  outer loop
    vertex 188.66410745534552 28.596934407917423 22.012800000000183
    vertex 200.5664306077322 25.921970308278777 22.012800000000183
    vertex 191.0449074553455 28.59693440791743 22.012800000000183
  endloop
endfacet
facet normal 0.0 0.0 1.0
  outer loop
    vertex 188.66410745534552 28.596934407917423 22.012800000000183
    vertex 191.0449074553455 28.59693440791743 22.012800000000183
    vertex 188.66410745534552 32.91213440791743 22.012800000000183
  endloop
endfacet
facet normal 0.0 0.0 1.0
  outer loop
    vertex 191.0449074553455 28.59693440791743 22.012800000000183
    vertex 200.5664306077322 25.921970308278777 22.012800000000183
    vertex 200.49370745534551 28.59693440791743 22.012800000000183
  endloop
endfacet
facet normal 0.0 0.0 1.0
  outer loop
    vertex 200.49370745534551 28.59693440791743 22.012800000000183
    vertex 200.5664306077322 25.921970308278777 22.012800000000183
    vertex 200.49370745534551 31.498534407917408 22.012800000000183
  endloop
endfacet
facet normal 0.0 0.0 1.0
  outer loop
    vertex 200.49370745534551 31.498534407917408 22.012800000000183
    vertex 200.5664306077322 25.921970308278777 22.012800000000183
    vertex 201.34121315036396 28.59693440791743 22.012800000000183
  endloop
endfacet
facet normal 0.0 0.0 1.0
  outer loop
    vertex 200.49370745534551 31.498534407917408 22.012800000000183
    vertex 201.34121315036396 28.59693440791743 22.012800000000183
    vertex 203.54410745534557 31.498534407917408 22.012800000000183
  endloop
endfacet
facet normal 0.0 0.0 1.0
  outer loop
    vertex 201.34121315036396 28.59693440791743 22.012800000000183
    vertex 200.5664306077322 25.921970308278777 22.012800000000183
    vertex 201.34121315036396 25.5465344079174 22.012800000000183
  endloop
endfacet
facet normal 0.0 0.0 1.0
  outer loop
    vertex 203.54410745534557 31.498534407917408 22.012800000000183
    vertex 201.34121315036396 28.59693440791743 22.012800000000183
    vertex 204.3916131503639 28.59693440791743 22.012800000000183
  endloop
endfacet
facet normal 0.0 0.0 1.0
  outer loop
    vertex 203.54410745534557 31.498534407917408 22.012800000000183
    vertex 204.3916131503639 28.59693440791743 22.012800000000183
    vertex 204.6985911553261 29.810889840602925 22.012800000000183
  endloop
endfacet
facet normal 0.0 0.0 1.0
  outer loop
    vertex 203.54410745534557 31.498534407917408 22.012800000000183
    vertex 204.6985911553261 29.810889840602925 22.012800000000183
    vertex 204.7654844782351 29.972384608002276 22.012800000000183
  endloop
endfacet
facet normal 0.0 0.0 1.0
  outer loop
    vertex 203.54410745534557 31.498534407917408 22.012800000000183
    vertex 204.7654844782351 29.972384608002276 22.012800000000183
    vertex 204.87189638792665 30.111063308684777 22.012800000000183
  endloop
endfacet
facet normal 0.0 0.0 1.0
  outer loop
    vertex 203.54410745534557 31.498534407917408 22.012800000000183
    vertex 204.87189638792665 30.111063308684777 22.012800000000183
    vertex 206.29690743836156 31.49837543602498 22.012800000000183
  endloop
endfacet
facet normal 0.0 0.0 1.0
  outer loop
    vertex 204.6985911553261 29.810889840602925 22.012800000000183
    vertex 204.3916131503639 28.59693440791743 22.012800000000183
    vertex 204.6757750886092 29.63758460800226 22.012800000000183
  endloop
endfacet
facet normal 0.0 0.0 1.0
  outer loop
    vertex 206.29690743836156 31.49837543602498 22.012800000000183
    vertex 204.87189638792665 30.111063308684777 22.012800000000183
    vertex 205.01057508860916 30.217475218376336 22.012800000000183
  endloop
endfacet
facet normal 0.0 0.0 1.0
  outer loop
    vertex 206.29690743836156 31.49837543602498 22.012800000000183
    vertex 205.01057508860916 30.217475218376336 22.012800000000183
    vertex 205.1720698560086 30.284368541285424 22.012800000000183
  endloop
endfacet
facet normal 0.0 0.0 1.0
  outer loop
    vertex 206.29690743836156 31.49837543602498 22.012800000000183
    vertex 205.1720698560086 30.284368541285424 22.012800000000183
    vertex 205.34537508860927 30.307184608002267 22.012800000000183
  endloop
endfacet
facet normal 0.0 0.0 1.0
  outer loop
    vertex 206.29690743836156 31.49837543602498 22.012800000000183
    vertex 205.34537508860927 30.307184608002267 22.012800000000183
    vertex 205.51868032121 30.284368541285424 22.012800000000183
  endloop
endfacet
facet normal 0.0 0.0 1.0
  outer loop
    vertex 206.29690743836156 31.49837543602498 22.012800000000183
    vertex 205.51868032121 30.284368541285424 22.012800000000183
    vertex 205.68017508860925 30.217475218376336 22.012800000000183
  endloop
endfacet
facet normal 0.0 0.0 1.0
  outer loop
    vertex 206.29690743836156 31.49837543602498 22.012800000000183
    vertex 205.68017508860925 30.217475218376336 22.012800000000183
    vertex 205.81885378929175 30.111063308684777 22.012800000000183
  endloop
endfacet
facet normal 0.0 0.0 1.0
  outer loop
    vertex 206.29690743836156 31.49837543602498 22.012800000000183
    vertex 205.81885378929175 30.111063308684777 22.012800000000183
    vertex 205.9252656989832 29.972384608002276 22.012800000000183
  endloop
endfacet
facet normal 0.0 0.0 1.0
  outer loop
    vertex 206.29690743836156 31.49837543602498 22.012800000000183
    vertex 205.9252656989832 29.972384608002276 22.012800000000183
    vertex 205.9921590218925 29.810889840602925 22.012800000000183
  endloop
endfacet
facet normal 0.0 0.0 1.0
  outer loop
    vertex 206.29690743836156 31.49837543602498 22.012800000000183
    vertex 205.9921590218925 29.810889840602925 22.012800000000183
    vertex 206.01497508860922 29.63758460800226 22.012800000000183
  endloop
endfacet
facet normal 0.0 0.0 1.0
  outer loop
    vertex 206.29690743836156 31.49837543602498 22.012800000000183
    vertex 206.01497508860922 29.63758460800226 22.012800000000183
    vertex 206.29523059074828 23.09461133638636 22.012800000000183
  endloop
endfacet
facet normal 0.0 0.0 1.0
  outer loop
    vertex 191.0449074553455 32.91213440791743 22.012800000000183
    vertex 188.66410745534552 32.91213440791743 22.012800000000183
    vertex 191.0449074553455 28.59693440791743 22.012800000000183
  endloop
endfacet
facet normal 0.0 0.0 1.0
  outer loop
    vertex 180.82005664661077 28.596934407917423 22.012800000000183
    vertex 180.82005664661077 33.51077030827878 22.012800000000183
    vertex 179.33556535408204 35.05671148196418 22.012800000000183
  endloop
endfacet
facet normal 0.0 0.0 1.0
  outer loop
    vertex 180.82005664661077 33.51077030827878 22.012800000000183
    vertex 180.82005664661077 28.596934407917423 22.012800000000183
    vertex 180.82005664661077 30.82893440791742 22.012800000000183
  endloop
endfacet
facet normal 0.0 0.0 1.0
  outer loop
    vertex 180.82005664661077 33.51077030827878 22.012800000000183
    vertex 180.82005664661077 30.82893440791742 22.012800000000183
    vertex 182.15987233047136 32.11549352810897 22.012800000000183
  endloop
endfacet
facet normal -0.1305261922200524 0.9914448613738103 -6.489035963393436e-32
  outer loop
    vertex 205.34537508860927 28.96798460800228 22.012800000000183
    vertex 205.51868032121 28.990800674719114 20.227200000000202
    vertex 205.34537508860927 28.96798460800228 20.227200000000202
  endloop
endfacet
facet normal -0.1305261922200524 0.9914448613738103 -6.489035963393436e-32
  outer loop
    vertex 205.51868032121 28.990800674719114 20.227200000000202
    vertex 205.34537508860927 28.96798460800228 22.012800000000183
    vertex 205.51868032121 28.990800674719114 22.012800000000183
  endloop
endfacet
facet normal -0.3826834323650826 0.9238795325112896 -6.046818886127148e-32
  outer loop
    vertex 205.51868032121 28.990800674719114 22.012800000000183
    vertex 205.68017508860925 29.057693997628213 20.227200000000202
    vertex 205.51868032121 28.990800674719114 20.227200000000202
  endloop
endfacet
facet normal -0.3826834323650826 0.9238795325112896 -6.046818886127148e-32
  outer loop
    vertex 205.68017508860925 29.057693997628213 20.227200000000202
    vertex 205.51868032121 28.990800674719114 22.012800000000183
    vertex 205.68017508860925 29.057693997628213 22.012800000000183
  endloop
endfacet
facet normal -0.6087614290087299 0.7933533402912282 -5.192521094611926e-32
  outer loop
    vertex 205.68017508860925 29.057693997628213 22.012800000000183
    vertex 205.81885378929175 29.164105907319758 20.227200000000202
    vertex 205.68017508860925 29.057693997628213 20.227200000000202
  endloop
endfacet
facet normal -0.6087614290087299 0.7933533402912282 -5.192521094611926e-32
  outer loop
    vertex 205.81885378929175 29.164105907319758 20.227200000000202
    vertex 205.68017508860925 29.057693997628213 22.012800000000183
    vertex 205.81885378929175 29.164105907319758 22.012800000000183
  endloop
endfacet
facet normal -0.7933533402912283 0.6087614290087296 -3.9843615715458666e-32
  outer loop
    vertex 205.9252656989832 29.302784608002277 22.012800000000183
    vertex 205.81885378929175 29.164105907319758 20.227200000000202
    vertex 205.81885378929175 29.164105907319758 22.012800000000183
  endloop
endfacet
facet normal -0.7933533402912283 0.6087614290087296 -3.9843615715458666e-32
  outer loop
    vertex 205.81885378929175 29.164105907319758 20.227200000000202
    vertex 205.9252656989832 29.302784608002277 22.012800000000183
    vertex 205.9252656989832 29.302784608002277 20.227200000000202
  endloop
endfacet
facet normal -0.9238795325112864 0.3826834323650905 -2.5046743918476374e-32
  outer loop
    vertex 205.9921590218925 29.46427937540161 22.012800000000183
    vertex 205.9252656989832 29.302784608002277 20.227200000000202
    vertex 205.9252656989832 29.302784608002277 22.012800000000183
  endloop
endfacet
facet normal -0.9238795325112864 0.3826834323650905 -2.5046743918476374e-32
  outer loop
    vertex 205.9252656989832 29.302784608002277 20.227200000000202
    vertex 205.9921590218925 29.46427937540161 22.012800000000183
    vertex 205.9921590218925 29.46427937540161 20.227200000000202
  endloop
endfacet
facet normal -0.9914448613738114 0.130526192220045 -8.54297791515134e-33
  outer loop
    vertex 206.01497508860922 29.63758460800226 22.012800000000183
    vertex 205.9921590218925 29.46427937540161 20.227200000000202
    vertex 205.9921590218925 29.46427937540161 22.012800000000183
  endloop
endfacet
facet normal -0.9914448613738114 0.130526192220045 -8.54297791515134e-33
  outer loop
    vertex 205.9921590218925 29.46427937540161 20.227200000000202
    vertex 206.01497508860922 29.63758460800226 22.012800000000183
    vertex 206.01497508860922 29.63758460800226 20.227200000000202
  endloop
endfacet
facet normal -0.9914448613738114 -0.13052619222004436 8.542977915151345e-33
  outer loop
    vertex 205.9921590218925 29.810889840602925 22.012800000000183
    vertex 206.01497508860922 29.63758460800226 20.227200000000202
    vertex 206.01497508860922 29.63758460800226 22.012800000000183
  endloop
endfacet
facet normal -0.9914448613738114 -0.13052619222004436 8.542977915151345e-33
  outer loop
    vertex 206.01497508860922 29.63758460800226 20.227200000000202
    vertex 205.9921590218925 29.810889840602925 22.012800000000183
    vertex 205.9921590218925 29.810889840602925 20.227200000000202
  endloop
endfacet
facet normal -0.9238795325112859 -0.38268343236509217 2.5046743918476555e-32
  outer loop
    vertex 205.9252656989832 29.972384608002276 22.012800000000183
    vertex 205.9921590218925 29.810889840602925 20.227200000000202
    vertex 205.9921590218925 29.810889840602925 22.012800000000183
  endloop
endfacet
facet normal -0.9238795325112859 -0.38268343236509217 2.5046743918476555e-32
  outer loop
    vertex 205.9921590218925 29.810889840602925 20.227200000000202
    vertex 205.9252656989832 29.972384608002276 22.012800000000183
    vertex 205.9252656989832 29.972384608002276 20.227200000000202
  endloop
endfacet
facet normal -0.7933533402912303 -0.6087614290087271 3.984361571545866e-32
  outer loop
    vertex 205.81885378929175 30.111063308684777 22.012800000000183
    vertex 205.9252656989832 29.972384608002276 20.227200000000202
    vertex 205.9252656989832 29.972384608002276 22.012800000000183
  endloop
endfacet
facet normal -0.7933533402912303 -0.6087614290087271 3.984361571545866e-32
  outer loop
    vertex 205.9252656989832 29.972384608002276 20.227200000000202
    vertex 205.81885378929175 30.111063308684777 22.012800000000183
    vertex 205.81885378929175 30.111063308684777 20.227200000000202
  endloop
endfacet
facet normal -0.6087614290087181 -0.7933533402912372 5.19252109461198e-32
  outer loop
    vertex 205.81885378929175 30.111063308684777 22.012800000000183
    vertex 205.68017508860925 30.217475218376336 20.227200000000202
    vertex 205.81885378929175 30.111063308684777 20.227200000000202
  endloop
endfacet
facet normal -0.6087614290087181 -0.7933533402912372 5.19252109461198e-32
  outer loop
    vertex 205.68017508860925 30.217475218376336 20.227200000000202
    vertex 205.81885378929175 30.111063308684777 22.012800000000183
    vertex 205.68017508860925 30.217475218376336 22.012800000000183
  endloop
endfacet
facet normal -0.38268343236509217 -0.9238795325112859 6.04681888612714e-32
  outer loop
    vertex 205.68017508860925 30.217475218376336 22.012800000000183
    vertex 205.51868032121 30.284368541285424 20.227200000000202
    vertex 205.68017508860925 30.217475218376336 20.227200000000202
  endloop
endfacet
facet normal -0.38268343236509217 -0.9238795325112859 6.04681888612714e-32
  outer loop
    vertex 205.51868032121 30.284368541285424 20.227200000000202
    vertex 205.68017508860925 30.217475218376336 22.012800000000183
    vertex 205.51868032121 30.284368541285424 22.012800000000183
  endloop
endfacet
facet normal -0.13052619222005032 -0.9914448613738107 6.489035963393448e-32
  outer loop
    vertex 205.51868032121 30.284368541285424 22.012800000000183
    vertex 205.34537508860927 30.307184608002267 20.227200000000202
    vertex 205.51868032121 30.284368541285424 20.227200000000202
  endloop
endfacet
facet normal -0.13052619222005032 -0.9914448613738107 6.489035963393448e-32
  outer loop
    vertex 205.34537508860927 30.307184608002267 20.227200000000202
    vertex 205.51868032121 30.284368541285424 22.012800000000183
    vertex 205.34537508860927 30.307184608002267 22.012800000000183
  endloop
endfacet
facet normal 0.13052619222005477 -0.99144486137381 6.489035963393438e-32
  outer loop
    vertex 205.34537508860927 30.307184608002267 22.012800000000183
    vertex 205.1720698560086 30.284368541285424 20.227200000000202
    vertex 205.34537508860927 30.307184608002267 20.227200000000202
  endloop
endfacet
facet normal 0.13052619222005477 -0.99144486137381 6.489035963393438e-32
  outer loop
    vertex 205.1720698560086 30.284368541285424 20.227200000000202
    vertex 205.34537508860927 30.307184608002267 22.012800000000183
    vertex 205.1720698560086 30.284368541285424 22.012800000000183
  endloop
endfacet
facet normal 0.38268343236508157 -0.9238795325112903 6.04681888612717e-32
  outer loop
    vertex 205.1720698560086 30.284368541285424 22.012800000000183
    vertex 205.01057508860916 30.217475218376336 20.227200000000202
    vertex 205.1720698560086 30.284368541285424 20.227200000000202
  endloop
endfacet
facet normal 0.38268343236508157 -0.9238795325112903 6.04681888612717e-32
  outer loop
    vertex 205.01057508860916 30.217475218376336 20.227200000000202
    vertex 205.1720698560086 30.284368541285424 22.012800000000183
    vertex 205.01057508860916 30.217475218376336 22.012800000000183
  endloop
endfacet
facet normal 0.6087614290087312 -0.7933533402912273 5.192521094611906e-32
  outer loop
    vertex 205.01057508860916 30.217475218376336 22.012800000000183
    vertex 204.87189638792665 30.111063308684777 20.227200000000202
    vertex 205.01057508860916 30.217475218376336 20.227200000000202
  endloop
endfacet
facet normal 0.6087614290087312 -0.7933533402912273 5.192521094611906e-32
  outer loop
    vertex 204.87189638792665 30.111063308684777 20.227200000000202
    vertex 205.01057508860916 30.217475218376336 22.012800000000183
    vertex 204.87189638792665 30.111063308684777 22.012800000000183
  endloop
endfacet
facet normal 0.7933533402912282 -0.6087614290087299 3.984361571545878e-32
  outer loop
    vertex 204.87189638792665 30.111063308684777 20.227200000000202
    vertex 204.7654844782351 29.972384608002276 22.012800000000183
    vertex 204.7654844782351 29.972384608002276 20.227200000000202
  endloop
endfacet
facet normal 0.7933533402912282 -0.6087614290087299 3.984361571545878e-32
  outer loop
    vertex 204.7654844782351 29.972384608002276 22.012800000000183
    vertex 204.87189638792665 30.111063308684777 20.227200000000202
    vertex 204.87189638792665 30.111063308684777 22.012800000000183
  endloop
endfacet
facet normal 0.9238795325112864 -0.3826834323650905 2.5046743918476374e-32
  outer loop
    vertex 204.7654844782351 29.972384608002276 20.227200000000202
    vertex 204.6985911553261 29.810889840602925 22.012800000000183
    vertex 204.6985911553261 29.810889840602925 20.227200000000202
  endloop
endfacet
facet normal 0.9238795325112864 -0.3826834323650905 2.5046743918476374e-32
  outer loop
    vertex 204.6985911553261 29.810889840602925 22.012800000000183
    vertex 204.7654844782351 29.972384608002276 20.227200000000202
    vertex 204.7654844782351 29.972384608002276 22.012800000000183
  endloop
endfacet
facet normal 0.9914448613738114 -0.130526192220045 8.54297791515134e-33
  outer loop
    vertex 204.6985911553261 29.810889840602925 20.227200000000202
    vertex 204.6757750886092 29.63758460800226 22.012800000000183
    vertex 204.6757750886092 29.63758460800226 20.227200000000202
  endloop
endfacet
facet normal 0.9914448613738114 -0.130526192220045 8.54297791515134e-33
  outer loop
    vertex 204.6757750886092 29.63758460800226 22.012800000000183
    vertex 204.6985911553261 29.810889840602925 20.227200000000202
    vertex 204.6985911553261 29.810889840602925 22.012800000000183
  endloop
endfacet
facet normal 0.9914448613738114 0.130526192220045 -8.542977915151393e-33
  outer loop
    vertex 204.6757750886092 29.63758460800226 20.227200000000202
    vertex 204.6985911553261 29.46427937540161 22.012800000000183
    vertex 204.6985911553261 29.46427937540161 20.227200000000202
  endloop
endfacet
facet normal 0.9914448613738114 0.130526192220045 -8.542977915151393e-33
  outer loop
    vertex 204.6985911553261 29.46427937540161 22.012800000000183
    vertex 204.6757750886092 29.63758460800226 20.227200000000202
    vertex 204.6757750886092 29.63758460800226 22.012800000000183
  endloop
endfacet
facet normal 0.9238795325112864 0.3826834323650905 -2.504674391847647e-32
  outer loop
    vertex 204.6985911553261 29.46427937540161 20.227200000000202
    vertex 204.7654844782351 29.302784608002277 22.012800000000183
    vertex 204.7654844782351 29.302784608002277 20.227200000000202
  endloop
endfacet
facet normal 0.9238795325112864 0.3826834323650905 -2.504674391847647e-32
  outer loop
    vertex 204.7654844782351 29.302784608002277 22.012800000000183
    vertex 204.6985911553261 29.46427937540161 20.227200000000202
    vertex 204.6985911553261 29.46427937540161 22.012800000000183
  endloop
endfacet
facet normal 0.7933533402912283 0.6087614290087296 -3.984361571545876e-32
  outer loop
    vertex 204.7654844782351 29.302784608002277 20.227200000000202
    vertex 204.87189638792665 29.164105907319758 22.012800000000183
    vertex 204.87189638792665 29.164105907319758 20.227200000000202
  endloop
endfacet
facet normal 0.7933533402912283 0.6087614290087296 -3.984361571545876e-32
  outer loop
    vertex 204.87189638792665 29.164105907319758 22.012800000000183
    vertex 204.7654844782351 29.302784608002277 20.227200000000202
    vertex 204.7654844782351 29.302784608002277 22.012800000000183
  endloop
endfacet
facet normal 0.6087614290087208 0.793353340291235 -5.192521094611965e-32
  outer loop
    vertex 204.87189638792665 29.164105907319758 22.012800000000183
    vertex 205.01057508860916 29.057693997628213 20.227200000000202
    vertex 204.87189638792665 29.164105907319758 20.227200000000202
  endloop
endfacet
facet normal 0.6087614290087208 0.793353340291235 -5.192521094611965e-32
  outer loop
    vertex 205.01057508860916 29.057693997628213 20.227200000000202
    vertex 204.87189638792665 29.164105907319758 22.012800000000183
    vertex 205.01057508860916 29.057693997628213 22.012800000000183
  endloop
endfacet
facet normal 0.38268343236509017 0.9238795325112867 -6.046818886127142e-32
  outer loop
    vertex 205.01057508860916 29.057693997628213 22.012800000000183
    vertex 205.1720698560086 28.990800674719114 20.227200000000202
    vertex 205.01057508860916 29.057693997628213 20.227200000000202
  endloop
endfacet
facet normal 0.38268343236509017 0.9238795325112867 -6.046818886127142e-32
  outer loop
    vertex 205.1720698560086 28.990800674719114 20.227200000000202
    vertex 205.01057508860916 29.057693997628213 22.012800000000183
    vertex 205.1720698560086 28.990800674719114 22.012800000000183
  endloop
endfacet
facet normal 0.1305261922200524 0.9914448613738103 -6.489035963393436e-32
  outer loop
    vertex 205.1720698560086 28.990800674719114 22.012800000000183
    vertex 205.34537508860927 28.96798460800228 20.227200000000202
    vertex 205.1720698560086 28.990800674719114 20.227200000000202
  endloop
endfacet
facet normal 0.1305261922200524 0.9914448613738103 -6.489035963393436e-32
  outer loop
    vertex 205.34537508860927 28.96798460800228 20.227200000000202
    vertex 205.1720698560086 28.990800674719114 22.012800000000183
    vertex 205.34537508860927 28.96798460800228 22.012800000000183
  endloop
endfacet
endsolid Homework_Model
